HIERARCHY
ROOT Hips
{
	OFFSET 0.00000 0.00000 0.00000
	CHANNELS 6 Xposition Yposition Zposition Zrotation Yrotation Xrotation 
	JOINT LHipJoint
	{
		OFFSET 0 0 0
		CHANNELS 3 Zrotation Yrotation Xrotation
		JOINT LeftHip
		{
			OFFSET 1.84395 -1.68683 0.74144
			CHANNELS 3 Zrotation Yrotation Xrotation
			JOINT LeftKnee
			{
				OFFSET 2.27037 -6.23779 0.00000
				CHANNELS 3 Zrotation Yrotation Xrotation
				JOINT LeftAnkle
				{
					OFFSET 2.56918 -7.05877 0.00000
					CHANNELS 3 Zrotation Yrotation Xrotation
					JOINT LeftToe
					{
						OFFSET 0.22276 -0.61202 1.71784
						CHANNELS 3 Zrotation Yrotation Xrotation
						End Site
						{
							OFFSET 0.00000 -0.00000 0.91613
						}
					}
				}
			}
		}
	}
	JOINT RHipJoint
	{
		OFFSET 0 0 0
		CHANNELS 3 Zrotation Yrotation Xrotation
		JOINT RightHip
		{
			OFFSET -1.76833 -1.68684 0.74144
			CHANNELS 3 Zrotation Yrotation Xrotation
			JOINT RightKnee
			{
				OFFSET -2.49360 -6.85110 0.00000
				CHANNELS 3 Zrotation Yrotation Xrotation
				JOINT RightAnkle
				{
					OFFSET -2.55538 -7.02085 0.00000
					CHANNELS 3 Zrotation Yrotation Xrotation
					JOINT RightToe
					{
						OFFSET -0.21516 -0.59115 1.68050
						CHANNELS 3 Zrotation Yrotation Xrotation
						End Site
						{
							OFFSET -0.00000 -0.00000 0.89604
						}
					}
				}
			}
		}
	}
	JOINT lowerback
	{
		OFFSET 0 0 0
		CHANNELS 3 Zrotation Yrotation Xrotation
		JOINT Chest
		{
			OFFSET 0.06382 1.72312 -0.19613
			CHANNELS 3 Zrotation Yrotation Xrotation
			JOINT Chest2
			{
				OFFSET -0.00055 1.73507 0.23859
				CHANNELS 3 Zrotation Yrotation Xrotation
				JOINT lowerneck
				{
					OFFSET 0 0 0
					CHANNELS 3 Zrotation Yrotation Xrotation
					JOINT Neck
					{
						OFFSET 0.03638 1.65562 0.09633
						CHANNELS 3 Zrotation Yrotation Xrotation
						JOINT Head
						{
							OFFSET 0.06388 1.62807 -0.32386
							CHANNELS 3 Zrotation Yrotation Xrotation
							End Site
							{
								OFFSET 0.00995 1.67644 -0.12021
							}
						}
					}
				}
				JOINT LeftCollar
				{
					OFFSET 0 0 0
					CHANNELS 3 Zrotation Yrotation Xrotation
					JOINT LeftShoulder
					{
						OFFSET 3.09648 1.42991 0.28122
CHANNELS 3 Zrotation Xrotation Yrotation
						JOINT LeftElbow
						{
OFFSET 0 -5.118780 -0.000000
CHANNELS 3 Zrotation Xrotation Yrotation
							JOINT LeftWrist
							{
OFFSET 0 -3.599710 0.000000
CHANNELS 3 Zrotation Xrotation Yrotation
								JOINT lhand
								{
									OFFSET 0 0 0
CHANNELS 3 Zrotation Xrotation Yrotation
									JOINT LFingers
									{
OFFSET 0 -0.628770 0.000000
CHANNELS 3 Zrotation Xrotation Yrotation
										End Site
										{
OFFSET 0 -0.506930 0.000000
										}
									}
								}
								JOINT LThumb
								{
OFFSET 0 0.000000 0.000000
CHANNELS 3 Zrotation Xrotation Yrotation
									End Site
									{
OFFSET 0 -0.514670 0.514670
									}
								}
							}
						}
					}
				}
				JOINT RightCollar
				{
					OFFSET 0 0 0
					CHANNELS 3 Zrotation Yrotation Xrotation
					JOINT RightShoulder
					{
						OFFSET -3.33565 1.14597 0.05047
CHANNELS 3 Zrotation Xrotation Yrotation
						JOINT RightElbow
						{
OFFSET 0 -5.490200 0.000000
CHANNELS 3 Zrotation Xrotation Yrotation
							JOINT RightWrist
							{
OFFSET 0 -3.206590 -0.000000
CHANNELS 3 Zrotation Xrotation Yrotation
								JOINT rhand
								{
									OFFSET 0 0 0
CHANNELS 3 Zrotation Xrotation Yrotation
									JOINT RFingers
									{
OFFSET 0 -0.691880 0.000000
CHANNELS 3 Zrotation Xrotation Yrotation
										End Site
										{
OFFSET 0 -0.557810 0.000000
										}
									}
								}
								JOINT RThumb
								{
OFFSET 0 0.000000 0.000000
CHANNELS 3 Zrotation Xrotation Yrotation
									End Site
									{
OFFSET 0 -0.566330 0.566330
									}
								}
							}
						}
					}
				}
			}
		}
	}
}
MOTION
Frames: 10
Frame Time: 0.008333333333333333
0.571046 17.618300 9.541270 -10.131270 -2.711001 17.354653 0.000000 0.000000 0.000000 -18.023207 -52.639037 25.015505 0.059757 -1.577498 -4.339465 2.852919 43.935939 -65.433710 2.248980 9.366324 26.948176 0.000000 0.000000 0.000000 26.061420 31.013564 -0.034320 -0.001559 -0.254070 0.698053 1.467656 -23.360364 -20.324456 -0.164062 -2.609332 7.193043 9.339539 3.817508 5.394039 -0.973731 5.981495 -5.914239 -6.960856 2.316541 -8.305839 -5.733403 -8.132720 -17.450559 13.101835 -11.895024 12.165685 3.768587 -4.809583 7.802962 0.000000 0.000000 0.000000 -9.499898 -41.649403 -67.254754 32.489693 -42.934166 13.073223 35.025951 -30.202887 13.479775 0.000000 0.000000 0.000000 -7.125000 0.000000 0.000000 5.168131 13.712078 3.811611 0.000000 0.000000 0.000000 -63.425370 -67.767026 32.157652 -24.615928 -35.808847 -8.064102 41.613429 -20.629155 40.263793 0.000000 0.000000 0.000000 7.125000 0.000000 0.000000 78.663129 54.250179 -31.794004
0.571831 17.618100 9.537709 -10.119858 -2.762551 17.347528 0.000000 0.000000 0.000000 -18.183237 -52.769479 25.194227 0.058987 -1.567707 -4.312517 3.139532 43.776307 -65.795993 2.304659 9.473770 27.288889 0.000000 0.000000 0.000000 26.020296 30.997307 -0.070587 -0.001600 -0.259864 0.714041 1.451350 -23.275510 -20.314258 -0.169631 -2.652892 7.313963 9.309192 3.808746 5.430804 -0.999589 5.968011 -5.899919 -6.973366 2.310765 -8.313855 -5.679304 -8.094556 -17.634380 13.097926 -11.875339 12.364747 3.756607 -4.782115 7.895017 0.000000 0.000000 0.000000 -9.437729 -41.704272 -67.282357 32.478833 -42.925553 13.065769 35.070815 -30.021609 13.398330 0.000000 0.000000 0.000000 -7.125000 0.000000 0.000000 5.209394 13.800896 3.832507 0.000000 0.000000 0.000000 -63.536227 -67.544035 32.931968 -24.778561 -35.976707 -8.159498 35.880221 -10.301798 37.960079 0.000000 0.000000 0.000000 7.125000 0.000000 0.000000 71.844707 54.375753 -26.470268
0.569506 17.618194 9.535723 -10.135650 -2.841949 17.349145 0.000000 0.000000 0.000000 -18.287215 -52.826917 25.355119 0.059480 -1.573647 -4.328705 3.275030 43.800020 -66.059404 2.313123 9.489864 27.340072 0.000000 0.000000 0.000000 26.015698 30.907568 -0.142707 -0.001597 -0.259207 0.712264 1.451611 -23.190360 -20.075688 -0.149105 -2.488163 6.856890 9.187450 3.837007 5.436603 -0.969129 5.996266 -5.887364 -6.875127 2.334038 -8.311008 -5.672597 -8.058172 -17.677824 13.061809 -11.831393 12.464767 3.748990 -4.758362 7.928021 0.000000 0.000000 0.000000 -9.557887 -41.716336 -67.332978 32.444562 -42.898752 13.042453 34.899118 -29.713451 13.304828 0.000000 0.000000 0.000000 -7.125000 0.000000 0.000000 5.107494 13.941657 3.741649 0.000000 0.000000 0.000000 -64.506435 -67.063862 32.865299 -24.783015 -35.981363 -8.162075 29.357037 5.433675 31.234478 0.000000 0.000000 0.000000 7.125000 0.000000 0.000000 59.617695 51.799232 -14.195139
0.569196 17.618000 9.537340 -10.101320 -2.775180 17.349481 0.000000 0.000000 0.000000 -18.468899 -53.002987 25.541249 0.058548 -1.561137 -4.294319 3.422682 43.763241 -66.286940 2.339956 9.540881 27.502407 0.000000 0.000000 0.000000 25.979438 30.863204 -0.117008 -0.001416 -0.245378 0.674166 1.431834 -23.141170 -20.214929 -0.164792 -2.615109 7.209094 9.074988 3.819064 5.401953 -0.913436 5.961918 -5.888914 -6.746676 2.326022 -8.313303 -5.680076 -8.070636 -17.704142 12.934712 -11.839415 12.603676 3.706214 -4.767386 7.969861 0.000000 0.000000 0.000000 -9.700608 -41.601835 -67.280882 32.492027 -42.935920 13.074793 34.937027 -29.712920 13.270855 0.000000 0.000000 0.000000 -7.125000 0.000000 0.000000 5.137530 13.975438 3.760138 0.000000 0.000000 0.000000 -65.808203 -66.760791 32.146202 -24.280967 -35.459751 -7.869062 24.565327 17.579734 22.255437 0.000000 0.000000 0.000000 7.125000 0.000000 0.000000 48.461316 46.261584 -2.088231
0.568035 17.617540 9.538100 -10.111877 -2.629606 17.369485 0.000000 0.000000 0.000000 -18.226320 -52.948756 25.285025 0.058765 -1.564532 -4.303607 3.178640 43.817619 -65.904291 2.303979 9.472347 27.284448 0.000000 0.000000 0.000000 26.016481 30.901468 -0.076694 -0.001300 -0.232545 0.639080 1.451152 -23.280774 -20.332007 -0.165451 -2.620667 7.224443 9.067004 3.777512 5.369002 -0.879284 5.905612 -5.907153 -6.698735 2.298632 -8.328463 -5.845577 -8.092097 -17.699714 13.030414 -11.858639 12.699124 3.761843 -4.772335 8.019494 0.000000 0.000000 0.000000 -9.789572 -41.563762 -67.239637 32.437365 -42.893064 13.037566 34.934872 -29.693655 13.323481 0.000000 0.000000 0.000000 -7.125000 0.000000 0.000000 5.128878 13.913458 3.760484 0.000000 0.000000 0.000000 -66.907544 -66.259824 31.737701 -24.162578 -35.335687 -7.800385 19.672955 24.167513 16.878419 0.000000 0.000000 0.000000 7.125000 0.000000 0.000000 41.443519 42.748098 2.823123
0.566991 17.617115 9.538232 -10.116691 -2.452667 17.371577 0.000000 0.000000 0.000000 -17.867155 -52.762415 24.861481 0.059146 -1.568740 -4.315335 2.818210 43.824312 -65.263280 2.251196 9.370740 26.962176 0.000000 0.000000 0.000000 26.065240 31.001341 0.010930 -0.001154 -0.221403 0.608436 1.473695 -23.473578 -20.553225 -0.178660 -2.722728 7.507737 9.085470 3.698762 5.364948 -0.856318 5.802929 -5.907764 -6.675153 2.246601 -8.345961 -6.052371 -8.105361 -17.780069 13.223018 -11.871011 12.784317 3.855240 -4.764054 8.089950 0.000000 0.000000 0.000000 -9.799490 -41.601772 -67.128238 32.306538 -42.790179 12.948568 34.947502 -29.505506 13.339073 0.000000 0.000000 0.000000 -7.125000 0.000000 0.000000 5.135110 13.892687 3.767437 0.000000 0.000000 0.000000 -67.794948 -65.813659 31.480525 -24.398711 -35.582956 -7.937444 16.540923 28.841428 15.106214 0.000000 0.000000 0.000000 7.125000 0.000000 0.000000 38.181199 41.695353 3.737213
0.564907 17.615508 9.545121 -10.138480 -2.281870 17.371437 0.000000 0.000000 0.000000 -17.844360 -52.824456 24.904892 0.059546 -1.574168 -4.330154 2.703511 43.868042 -65.097950 2.220492 9.310983 26.773077 0.000000 0.000000 0.000000 26.153594 30.984590 0.112399 -0.000900 -0.194323 0.533897 1.493900 -23.614545 -20.666593 -0.182978 -2.755252 7.598018 9.117448 3.623562 5.255556 -0.825085 5.694492 -5.891987 -6.638852 2.196934 -8.284160 -6.109814 -8.103831 -17.828011 13.302974 -11.878690 12.860646 3.888908 -4.758170 8.134042 0.000000 0.000000 0.000000 -9.707450 -41.549181 -66.990289 32.311347 -42.793980 12.951847 35.124929 -29.506980 13.344244 0.000000 0.000000 0.000000 -7.125000 0.000000 0.000000 5.253112 13.855737 3.858841 0.000000 0.000000 0.000000 -68.429215 -65.610688 31.178694 -24.478752 -35.666384 -7.983986 15.034767 32.547182 14.374075 0.000000 0.000000 0.000000 7.125000 0.000000 0.000000 36.689346 41.263137 4.006927
0.562834 17.614726 9.547666 -10.209455 -2.194318 17.364704 0.000000 0.000000 0.000000 -17.597265 -52.705752 24.741004 0.060883 -1.591947 -4.379174 2.669607 43.737346 -64.908410 2.250107 9.368653 26.955517 0.000000 0.000000 0.000000 26.280538 31.047427 0.191746 -0.000891 -0.189951 0.521931 1.506083 -23.716806 -20.782602 -0.189443 -2.802807 7.730260 9.189500 3.612617 5.214287 -0.781662 5.685134 -5.886383 -6.627357 2.191368 -8.254432 -5.930112 -8.102055 -17.910202 13.044974 -11.887508 13.008406 3.770841 -4.767721 8.167812 0.000000 0.000000 0.000000 -9.723547 -41.441552 -66.989303 32.387898 -42.854183 13.003822 35.235264 -29.609339 13.265520 0.000000 0.000000 0.000000 -7.125000 0.000000 0.000000 5.337929 13.929994 3.913249 0.000000 0.000000 0.000000 -69.112274 -65.465144 30.965116 -24.345717 -35.527727 -7.906556 13.292656 34.544320 14.305899 0.000000 0.000000 0.000000 7.125000 0.000000 0.000000 35.338752 41.404662 3.660394
0.562483 17.615717 9.546135 -10.167478 -2.296422 17.318499 0.000000 0.000000 0.000000 -17.589305 -52.510253 24.646012 0.061238 -1.596934 -4.393068 2.553932 43.738567 -64.696940 2.247288 9.363248 26.938390 0.000000 0.000000 0.000000 26.246267 31.103712 0.250301 -0.000890 -0.189341 0.520230 1.510018 -23.723905 -20.750450 -0.190528 -2.811120 7.753306 9.124956 3.624723 5.283892 -0.780445 5.702444 -5.880824 -6.597767 2.201692 -8.291084 -5.889094 -8.106154 -17.960276 12.965136 -11.906878 13.166666 3.733685 -4.773779 8.222498 0.000000 0.000000 0.000000 -9.750934 -41.388815 -66.934777 32.396559 -42.861073 13.009780 35.199198 -29.557112 13.356727 0.000000 0.000000 0.000000 -7.125000 0.000000 0.000000 5.300967 13.827842 3.897460 0.000000 0.000000 0.000000 -68.863247 -65.560838 31.049135 -24.163269 -35.336432 -7.800790 12.699263 35.129682 15.604398 0.000000 0.000000 0.000000 7.125000 0.000000 0.000000 35.516149 42.567582 2.480099
0.562595 17.616542 9.544871 -10.169666 -2.496569 17.271156 0.000000 0.000000 0.000000 -17.568597 -52.275594 24.587599 0.062242 -1.609574 -4.427768 2.394977 43.880751 -64.545610 2.195679 9.262341 26.619353 0.000000 0.000000 0.000000 26.243504 31.013481 0.210205 -0.001171 -0.223469 0.613997 1.475200 -23.499505 -20.603019 -0.180723 -2.737913 7.549886 9.162897 3.642173 5.415989 -0.815804 5.741357 -5.887420 -6.672795 2.212036 -8.362859 -6.009899 -8.123187 -17.944503 13.104991 -11.932878 13.201111 3.796409 -4.778574 8.251923 0.000000 0.000000 0.000000 -9.649033 -41.420222 -66.896034 32.367645 -42.838352 12.990155 35.256490 -29.409148 13.233925 0.000000 0.000000 0.000000 -7.125000 0.000000 0.000000 5.356550 13.963922 3.923139 0.000000 0.000000 0.000000 -67.944509 -65.854540 31.556690 -24.123177 -35.294213 -7.777607 14.896558 31.154497 19.505567 0.000000 0.000000 0.000000 7.125000 0.000000 0.000000 39.381440 45.508777 -0.640336
